<?xml version="1.0" encoding="iso-8859-1"?>
<!-- Generator: Adobe Illustrator 19.0.0, SVG Export Plug-In . SVG Version: 6.00 Build 0)  -->
<svg version="1.1" id="Layer_1" xmlns="http://www.w3.org/2000/svg" xmlns:xlink="http://www.w3.org/1999/xlink" x="0px" y="0px"
	 viewBox="0 0 290.626 290.626" style="enable-background:new 0 0 290.626 290.626;" xml:space="preserve">
<g>
	<g>
		<g>
			<path d="M257.813,253.126L257.813,253.126v-18.751h-9.375V51.563C248.438,23.133,225.305,0,196.875,0
				s-51.563,23.133-51.563,51.563v84.375c0,2.583-2.105,4.688-4.688,4.688H109.27c-7.908-2.236-16.242-3.708-24.895-4.327v-14.423
				H42.188v14.063h-9.375C14.719,135.938,0,150.656,0,168.75v60.938c0,12.923,10.514,23.438,23.438,23.438h26.198
				c5.578,13.725,19.036,23.438,34.739,23.438s29.161-9.712,34.739-23.438h40.261c12.923,0,23.438-10.514,23.438-23.438
				c0-24.427-10.233-46.383-27.244-62.902c10.444-4.111,17.869-14.273,17.869-26.161V51.563c0-12.923,10.514-23.438,23.438-23.438
				s23.438,10.514,23.438,23.438v182.813h-9.375v18.75h-32.813v37.5h112.5v-37.5H257.813z M51.563,131.25H75v4.688H51.563V131.25z
				 M84.375,267.188c-15.511,0-28.125-12.614-28.125-28.125s12.614-28.125,28.125-28.125s28.125,12.614,28.125,28.125
				S99.886,267.188,84.375,267.188z M173.438,229.687c0,7.754-6.31,14.063-14.063,14.063h-37.823
				c0.192-1.537,0.323-3.098,0.323-4.688c0-20.677-16.823-37.5-37.5-37.5s-37.5,16.823-37.5,37.5c0,1.589,0.131,3.15,0.323,4.688
				h-23.76c-7.753,0-14.063-6.309-14.063-14.063V168.75c0-12.923,10.514-23.438,23.438-23.438h9.375H75
				C130.2,145.312,173.438,182.376,173.438,229.687z M196.875,18.75c-18.094,0-32.813,14.719-32.813,32.813v89.063
				c0,9.83-7.627,17.827-17.264,18.6c-4.434-3.408-9.206-6.492-14.269-9.225h8.095c7.753,0,14.063-6.309,14.063-14.063V51.563
				c0-23.259,18.928-42.188,42.188-42.188s42.188,18.928,42.188,42.188v182.813h-9.375V51.563
				C229.688,33.469,214.969,18.75,196.875,18.75z M220.313,243.75h28.125v9.375h-28.125V243.75z M281.251,281.25L281.251,281.25
				H187.5V262.5h23.438h46.875h23.438V281.25z"/>
			<rect x="159.375" y="281.25" width="9.375" height="9.375"/>
			<rect x="140.625" y="281.25" width="9.375" height="9.375"/>
			<rect x="121.875" y="281.25" width="9.375" height="9.375"/>
			<rect x="18.75" y="159.375" width="9.375" height="9.375"/>
			<rect x="18.75" y="178.125" width="9.375" height="9.375"/>
			<path d="M84.375,220.313c-10.341,0-18.75,8.409-18.75,18.75s8.409,18.75,18.75,18.75s18.75-8.409,18.75-18.75
				S94.716,220.313,84.375,220.313z M84.375,248.438c-5.17,0-9.375-4.205-9.375-9.375s4.205-9.375,9.375-9.375
				s9.375,4.205,9.375,9.375S89.545,248.438,84.375,248.438z"/>
		</g>
	</g>
</g>
<g>
</g>
<g>
</g>
<g>
</g>
<g>
</g>
<g>
</g>
<g>
</g>
<g>
</g>
<g>
</g>
<g>
</g>
<g>
</g>
<g>
</g>
<g>
</g>
<g>
</g>
<g>
</g>
<g>
</g>
</svg>
